<svg width="135" height="115" viewBox="0 0 135 115" fill="none" xmlns="http://www.w3.org/2000/svg">
<g opacity="0.3">
<mask id="mask0_0_1122" style="mask-type:alpha" maskUnits="userSpaceOnUse" x="0" y="0" width="11" height="11">
<path d="M5.35847 10.425C8.31788 10.425 10.717 8.09121 10.717 5.21245C10.717 2.33368 8.31788 0 5.35847 0C2.39907 0 0 2.33368 0 5.21245C0 8.09121 2.39907 10.425 5.35847 10.425Z" fill="url(#paint0_linear_0_1122)"/>
</mask>
<g mask="url(#mask0_0_1122)">
<path d="M5.35847 10.425C8.31788 10.425 10.717 8.09121 10.717 5.21245C10.717 2.33368 8.31788 0 5.35847 0C2.39907 0 0 2.33368 0 5.21245C0 8.09121 2.39907 10.425 5.35847 10.425Z" fill="url(#paint1_linear_0_1122)"/>
</g>
<mask id="mask1_0_1122" style="mask-type:alpha" maskUnits="userSpaceOnUse" x="31" y="0" width="11" height="11">
<path d="M36.393 10.425C39.3524 10.425 41.7515 8.09121 41.7515 5.21245C41.7515 2.33368 39.3524 0 36.393 0C33.4336 0 31.0345 2.33368 31.0345 5.21245C31.0345 8.09121 33.4336 10.425 36.393 10.425Z" fill="url(#paint2_linear_0_1122)"/>
</mask>
<g mask="url(#mask1_0_1122)">
<path d="M36.393 10.425C39.3524 10.425 41.7515 8.09121 41.7515 5.21245C41.7515 2.33368 39.3524 0 36.393 0C33.4336 0 31.0345 2.33368 31.0345 5.21245C31.0345 8.09121 33.4336 10.425 36.393 10.425Z" fill="url(#paint3_linear_0_1122)"/>
</g>
<mask id="mask2_0_1122" style="mask-type:alpha" maskUnits="userSpaceOnUse" x="62" y="0" width="11" height="11">
<path d="M67.4275 10.425C70.3869 10.425 72.786 8.09121 72.786 5.21245C72.786 2.33368 70.3869 0 67.4275 0C64.4681 0 62.069 2.33368 62.069 5.21245C62.069 8.09121 64.4681 10.425 67.4275 10.425Z" fill="url(#paint4_linear_0_1122)"/>
</mask>
<g mask="url(#mask2_0_1122)">
<path d="M67.4275 10.425C70.3869 10.425 72.786 8.09121 72.786 5.21245C72.786 2.33368 70.3869 0 67.4275 0C64.4681 0 62.069 2.33368 62.069 5.21245C62.069 8.09121 64.4681 10.425 67.4275 10.425Z" fill="url(#paint5_linear_0_1122)"/>
</g>
<mask id="mask3_0_1122" style="mask-type:alpha" maskUnits="userSpaceOnUse" x="93" y="0" width="11" height="11">
<path d="M98.4621 10.425C101.421 10.425 103.821 8.09121 103.821 5.21245C103.821 2.33368 101.421 0 98.4621 0C95.5027 0 93.1036 2.33368 93.1036 5.21245C93.1036 8.09121 95.5027 10.425 98.4621 10.425Z" fill="url(#paint6_linear_0_1122)"/>
</mask>
<g mask="url(#mask3_0_1122)">
<path d="M98.4621 10.425C101.421 10.425 103.821 8.09121 103.821 5.21245C103.821 2.33368 101.421 0 98.4621 0C95.5027 0 93.1036 2.33368 93.1036 5.21245C93.1036 8.09121 95.5027 10.425 98.4621 10.425Z" fill="url(#paint7_linear_0_1122)"/>
</g>
<mask id="mask4_0_1122" style="mask-type:alpha" maskUnits="userSpaceOnUse" x="124" y="0" width="11" height="11">
<path d="M129.497 10.425C132.456 10.425 134.855 8.09121 134.855 5.21245C134.855 2.33368 132.456 0 129.497 0C126.537 0 124.138 2.33368 124.138 5.21245C124.138 8.09121 126.537 10.425 129.497 10.425Z" fill="url(#paint8_linear_0_1122)"/>
</mask>
<g mask="url(#mask4_0_1122)">
<path d="M129.497 10.425C132.456 10.425 134.855 8.09121 134.855 5.21245C134.855 2.33368 132.456 0 129.497 0C126.537 0 124.138 2.33368 124.138 5.21245C124.138 8.09121 126.537 10.425 129.497 10.425Z" fill="url(#paint9_linear_0_1122)"/>
</g>
<mask id="mask5_0_1122" style="mask-type:alpha" maskUnits="userSpaceOnUse" x="0" y="26" width="11" height="11">
<path d="M5.35847 36.5958C8.31788 36.5958 10.717 34.2621 10.717 31.3833C10.717 28.5046 8.31788 26.1709 5.35847 26.1709C2.39907 26.1709 0 28.5046 0 31.3833C0 34.2621 2.39907 36.5958 5.35847 36.5958Z" fill="url(#paint10_linear_0_1122)"/>
</mask>
<g mask="url(#mask5_0_1122)">
<path d="M5.35847 36.5958C8.31788 36.5958 10.717 34.2621 10.717 31.3833C10.717 28.5046 8.31788 26.1709 5.35847 26.1709C2.39907 26.1709 0 28.5046 0 31.3833C0 34.2621 2.39907 36.5958 5.35847 36.5958Z" fill="url(#paint11_linear_0_1122)"/>
</g>
<mask id="mask6_0_1122" style="mask-type:alpha" maskUnits="userSpaceOnUse" x="31" y="26" width="11" height="11">
<path d="M36.393 36.5958C39.3524 36.5958 41.7515 34.2621 41.7515 31.3833C41.7515 28.5046 39.3524 26.1709 36.393 26.1709C33.4336 26.1709 31.0345 28.5046 31.0345 31.3833C31.0345 34.2621 33.4336 36.5958 36.393 36.5958Z" fill="url(#paint12_linear_0_1122)"/>
</mask>
<g mask="url(#mask6_0_1122)">
<path d="M36.393 36.5958C39.3524 36.5958 41.7515 34.2621 41.7515 31.3833C41.7515 28.5046 39.3524 26.1709 36.393 26.1709C33.4336 26.1709 31.0345 28.5046 31.0345 31.3833C31.0345 34.2621 33.4336 36.5958 36.393 36.5958Z" fill="url(#paint13_linear_0_1122)"/>
</g>
<mask id="mask7_0_1122" style="mask-type:alpha" maskUnits="userSpaceOnUse" x="62" y="26" width="11" height="11">
<path d="M67.4275 36.5958C70.3869 36.5958 72.786 34.2621 72.786 31.3833C72.786 28.5046 70.3869 26.1709 67.4275 26.1709C64.4681 26.1709 62.069 28.5046 62.069 31.3833C62.069 34.2621 64.4681 36.5958 67.4275 36.5958Z" fill="url(#paint14_linear_0_1122)"/>
</mask>
<g mask="url(#mask7_0_1122)">
<path d="M67.4275 36.5958C70.3869 36.5958 72.786 34.2621 72.786 31.3833C72.786 28.5046 70.3869 26.1709 67.4275 26.1709C64.4681 26.1709 62.069 28.5046 62.069 31.3833C62.069 34.2621 64.4681 36.5958 67.4275 36.5958Z" fill="url(#paint15_linear_0_1122)"/>
</g>
<mask id="mask8_0_1122" style="mask-type:alpha" maskUnits="userSpaceOnUse" x="93" y="26" width="11" height="11">
<path d="M98.4621 36.5958C101.421 36.5958 103.821 34.2621 103.821 31.3833C103.821 28.5046 101.421 26.1709 98.4621 26.1709C95.5027 26.1709 93.1036 28.5046 93.1036 31.3833C93.1036 34.2621 95.5027 36.5958 98.4621 36.5958Z" fill="url(#paint16_linear_0_1122)"/>
</mask>
<g mask="url(#mask8_0_1122)">
<path d="M98.4621 36.5958C101.421 36.5958 103.821 34.2621 103.821 31.3833C103.821 28.5046 101.421 26.1709 98.4621 26.1709C95.5027 26.1709 93.1036 28.5046 93.1036 31.3833C93.1036 34.2621 95.5027 36.5958 98.4621 36.5958Z" fill="url(#paint17_linear_0_1122)"/>
</g>
<mask id="mask9_0_1122" style="mask-type:alpha" maskUnits="userSpaceOnUse" x="124" y="26" width="11" height="11">
<path d="M129.497 36.5958C132.456 36.5958 134.855 34.2621 134.855 31.3833C134.855 28.5046 132.456 26.1709 129.497 26.1709C126.537 26.1709 124.138 28.5046 124.138 31.3833C124.138 34.2621 126.537 36.5958 129.497 36.5958Z" fill="url(#paint18_linear_0_1122)"/>
</mask>
<g mask="url(#mask9_0_1122)">
<path d="M129.497 36.5958C132.456 36.5958 134.855 34.2621 134.855 31.3833C134.855 28.5046 132.456 26.1709 129.497 26.1709C126.537 26.1709 124.138 28.5046 124.138 31.3833C124.138 34.2621 126.537 36.5958 129.497 36.5958Z" fill="url(#paint19_linear_0_1122)"/>
</g>
<mask id="mask10_0_1122" style="mask-type:alpha" maskUnits="userSpaceOnUse" x="0" y="52" width="11" height="11">
<path d="M5.35847 62.7126C8.31788 62.7126 10.717 60.3789 10.717 57.5001C10.717 54.6213 8.31788 52.2876 5.35847 52.2876C2.39907 52.2876 0 54.6213 0 57.5001C0 60.3789 2.39907 62.7126 5.35847 62.7126Z" fill="url(#paint20_linear_0_1122)"/>
</mask>
<g mask="url(#mask10_0_1122)">
<path d="M5.35847 62.7126C8.31788 62.7126 10.717 60.3789 10.717 57.5001C10.717 54.6213 8.31788 52.2876 5.35847 52.2876C2.39907 52.2876 0 54.6213 0 57.5001C0 60.3789 2.39907 62.7126 5.35847 62.7126Z" fill="url(#paint21_linear_0_1122)"/>
</g>
<mask id="mask11_0_1122" style="mask-type:alpha" maskUnits="userSpaceOnUse" x="31" y="52" width="11" height="11">
<path d="M36.393 62.7126C39.3524 62.7126 41.7515 60.3789 41.7515 57.5001C41.7515 54.6213 39.3524 52.2876 36.393 52.2876C33.4336 52.2876 31.0345 54.6213 31.0345 57.5001C31.0345 60.3789 33.4336 62.7126 36.393 62.7126Z" fill="url(#paint22_linear_0_1122)"/>
</mask>
<g mask="url(#mask11_0_1122)">
<path d="M36.393 62.7126C39.3524 62.7126 41.7515 60.3789 41.7515 57.5001C41.7515 54.6213 39.3524 52.2876 36.393 52.2876C33.4336 52.2876 31.0345 54.6213 31.0345 57.5001C31.0345 60.3789 33.4336 62.7126 36.393 62.7126Z" fill="url(#paint23_linear_0_1122)"/>
</g>
<mask id="mask12_0_1122" style="mask-type:alpha" maskUnits="userSpaceOnUse" x="62" y="52" width="11" height="11">
<path d="M67.4275 62.7126C70.3869 62.7126 72.786 60.3789 72.786 57.5001C72.786 54.6213 70.3869 52.2876 67.4275 52.2876C64.4681 52.2876 62.069 54.6213 62.069 57.5001C62.069 60.3789 64.4681 62.7126 67.4275 62.7126Z" fill="url(#paint24_linear_0_1122)"/>
</mask>
<g mask="url(#mask12_0_1122)">
<path d="M67.4275 62.7126C70.3869 62.7126 72.786 60.3789 72.786 57.5001C72.786 54.6213 70.3869 52.2876 67.4275 52.2876C64.4681 52.2876 62.069 54.6213 62.069 57.5001C62.069 60.3789 64.4681 62.7126 67.4275 62.7126Z" fill="url(#paint25_linear_0_1122)"/>
</g>
<mask id="mask13_0_1122" style="mask-type:alpha" maskUnits="userSpaceOnUse" x="93" y="52" width="11" height="11">
<path d="M98.4621 62.7126C101.421 62.7126 103.821 60.3789 103.821 57.5001C103.821 54.6213 101.421 52.2876 98.4621 52.2876C95.5027 52.2876 93.1036 54.6213 93.1036 57.5001C93.1036 60.3789 95.5027 62.7126 98.4621 62.7126Z" fill="url(#paint26_linear_0_1122)"/>
</mask>
<g mask="url(#mask13_0_1122)">
<path d="M98.4621 62.7126C101.421 62.7126 103.821 60.3789 103.821 57.5001C103.821 54.6213 101.421 52.2876 98.4621 52.2876C95.5027 52.2876 93.1036 54.6213 93.1036 57.5001C93.1036 60.3789 95.5027 62.7126 98.4621 62.7126Z" fill="url(#paint27_linear_0_1122)"/>
</g>
<mask id="mask14_0_1122" style="mask-type:alpha" maskUnits="userSpaceOnUse" x="124" y="52" width="11" height="11">
<path d="M129.497 62.7126C132.456 62.7126 134.855 60.3789 134.855 57.5001C134.855 54.6213 132.456 52.2876 129.497 52.2876C126.537 52.2876 124.138 54.6213 124.138 57.5001C124.138 60.3789 126.537 62.7126 129.497 62.7126Z" fill="url(#paint28_linear_0_1122)"/>
</mask>
<g mask="url(#mask14_0_1122)">
<path d="M129.497 62.7126C132.456 62.7126 134.855 60.3789 134.855 57.5001C134.855 54.6213 132.456 52.2876 129.497 52.2876C126.537 52.2876 124.138 54.6213 124.138 57.5001C124.138 60.3789 126.537 62.7126 129.497 62.7126Z" fill="url(#paint29_linear_0_1122)"/>
</g>
<mask id="mask15_0_1122" style="mask-type:alpha" maskUnits="userSpaceOnUse" x="0" y="78" width="11" height="11">
<path d="M5.35847 88.8835C8.31788 88.8835 10.717 86.5497 10.717 83.6709C10.717 80.7922 8.31788 78.4585 5.35847 78.4585C2.39907 78.4585 0 80.7922 0 83.6709C0 86.5497 2.39907 88.8835 5.35847 88.8835Z" fill="url(#paint30_linear_0_1122)"/>
</mask>
<g mask="url(#mask15_0_1122)">
<path d="M5.35847 88.8835C8.31788 88.8835 10.717 86.5497 10.717 83.6709C10.717 80.7922 8.31788 78.4585 5.35847 78.4585C2.39907 78.4585 0 80.7922 0 83.6709C0 86.5497 2.39907 88.8835 5.35847 88.8835Z" fill="url(#paint31_linear_0_1122)"/>
</g>
<mask id="mask16_0_1122" style="mask-type:alpha" maskUnits="userSpaceOnUse" x="31" y="78" width="11" height="11">
<path d="M36.393 88.8835C39.3524 88.8835 41.7515 86.5497 41.7515 83.6709C41.7515 80.7922 39.3524 78.4585 36.393 78.4585C33.4336 78.4585 31.0345 80.7922 31.0345 83.6709C31.0345 86.5497 33.4336 88.8835 36.393 88.8835Z" fill="url(#paint32_linear_0_1122)"/>
</mask>
<g mask="url(#mask16_0_1122)">
<path d="M36.393 88.8835C39.3524 88.8835 41.7515 86.5497 41.7515 83.6709C41.7515 80.7922 39.3524 78.4585 36.393 78.4585C33.4336 78.4585 31.0345 80.7922 31.0345 83.6709C31.0345 86.5497 33.4336 88.8835 36.393 88.8835Z" fill="url(#paint33_linear_0_1122)"/>
</g>
<mask id="mask17_0_1122" style="mask-type:alpha" maskUnits="userSpaceOnUse" x="62" y="78" width="11" height="11">
<path d="M67.4275 88.8835C70.3869 88.8835 72.786 86.5497 72.786 83.6709C72.786 80.7922 70.3869 78.4585 67.4275 78.4585C64.4681 78.4585 62.069 80.7922 62.069 83.6709C62.069 86.5497 64.4681 88.8835 67.4275 88.8835Z" fill="url(#paint34_linear_0_1122)"/>
</mask>
<g mask="url(#mask17_0_1122)">
<path d="M67.4275 88.8835C70.3869 88.8835 72.786 86.5497 72.786 83.6709C72.786 80.7922 70.3869 78.4585 67.4275 78.4585C64.4681 78.4585 62.069 80.7922 62.069 83.6709C62.069 86.5497 64.4681 88.8835 67.4275 88.8835Z" fill="url(#paint35_linear_0_1122)"/>
</g>
<mask id="mask18_0_1122" style="mask-type:alpha" maskUnits="userSpaceOnUse" x="93" y="78" width="11" height="11">
<path d="M98.4621 88.8835C101.421 88.8835 103.821 86.5497 103.821 83.6709C103.821 80.7922 101.421 78.4585 98.4621 78.4585C95.5027 78.4585 93.1036 80.7922 93.1036 83.6709C93.1036 86.5497 95.5027 88.8835 98.4621 88.8835Z" fill="url(#paint36_linear_0_1122)"/>
</mask>
<g mask="url(#mask18_0_1122)">
<path d="M98.4621 88.8835C101.421 88.8835 103.821 86.5497 103.821 83.6709C103.821 80.7922 101.421 78.4585 98.4621 78.4585C95.5027 78.4585 93.1036 80.7922 93.1036 83.6709C93.1036 86.5497 95.5027 88.8835 98.4621 88.8835Z" fill="url(#paint37_linear_0_1122)"/>
</g>
<mask id="mask19_0_1122" style="mask-type:alpha" maskUnits="userSpaceOnUse" x="124" y="78" width="11" height="11">
<path d="M129.497 88.8835C132.456 88.8835 134.855 86.5497 134.855 83.6709C134.855 80.7922 132.456 78.4585 129.497 78.4585C126.537 78.4585 124.138 80.7922 124.138 83.6709C124.138 86.5497 126.537 88.8835 129.497 88.8835Z" fill="url(#paint38_linear_0_1122)"/>
</mask>
<g mask="url(#mask19_0_1122)">
<path d="M129.497 88.8835C132.456 88.8835 134.855 86.5497 134.855 83.6709C134.855 80.7922 132.456 78.4585 129.497 78.4585C126.537 78.4585 124.138 80.7922 124.138 83.6709C124.138 86.5497 126.537 88.8835 129.497 88.8835Z" fill="url(#paint39_linear_0_1122)"/>
</g>
<mask id="mask20_0_1122" style="mask-type:alpha" maskUnits="userSpaceOnUse" x="0" y="104" width="11" height="11">
<path d="M5.35847 115C8.31788 115 10.717 112.666 10.717 109.787C10.717 106.909 8.31788 104.575 5.35847 104.575C2.39907 104.575 0 106.909 0 109.787C0 112.666 2.39907 115 5.35847 115Z" fill="url(#paint40_linear_0_1122)"/>
</mask>
<g mask="url(#mask20_0_1122)">
<path d="M5.35847 115C8.31788 115 10.717 112.666 10.717 109.787C10.717 106.909 8.31788 104.575 5.35847 104.575C2.39907 104.575 0 106.909 0 109.787C0 112.666 2.39907 115 5.35847 115Z" fill="url(#paint41_linear_0_1122)"/>
</g>
<mask id="mask21_0_1122" style="mask-type:alpha" maskUnits="userSpaceOnUse" x="31" y="104" width="11" height="11">
<path d="M36.393 115C39.3524 115 41.7515 112.666 41.7515 109.787C41.7515 106.909 39.3524 104.575 36.393 104.575C33.4336 104.575 31.0345 106.909 31.0345 109.787C31.0345 112.666 33.4336 115 36.393 115Z" fill="url(#paint42_linear_0_1122)"/>
</mask>
<g mask="url(#mask21_0_1122)">
<path d="M36.393 115C39.3524 115 41.7515 112.666 41.7515 109.787C41.7515 106.909 39.3524 104.575 36.393 104.575C33.4336 104.575 31.0345 106.909 31.0345 109.787C31.0345 112.666 33.4336 115 36.393 115Z" fill="url(#paint43_linear_0_1122)"/>
</g>
<mask id="mask22_0_1122" style="mask-type:alpha" maskUnits="userSpaceOnUse" x="62" y="104" width="11" height="11">
<path d="M67.4275 115C70.3869 115 72.786 112.666 72.786 109.787C72.786 106.909 70.3869 104.575 67.4275 104.575C64.4681 104.575 62.069 106.909 62.069 109.787C62.069 112.666 64.4681 115 67.4275 115Z" fill="url(#paint44_linear_0_1122)"/>
</mask>
<g mask="url(#mask22_0_1122)">
<path d="M67.4275 115C70.3869 115 72.786 112.666 72.786 109.787C72.786 106.909 70.3869 104.575 67.4275 104.575C64.4681 104.575 62.069 106.909 62.069 109.787C62.069 112.666 64.4681 115 67.4275 115Z" fill="url(#paint45_linear_0_1122)"/>
</g>
<mask id="mask23_0_1122" style="mask-type:alpha" maskUnits="userSpaceOnUse" x="93" y="104" width="11" height="11">
<path d="M98.4621 115C101.421 115 103.821 112.666 103.821 109.787C103.821 106.909 101.421 104.575 98.4621 104.575C95.5027 104.575 93.1036 106.909 93.1036 109.787C93.1036 112.666 95.5027 115 98.4621 115Z" fill="url(#paint46_linear_0_1122)"/>
</mask>
<g mask="url(#mask23_0_1122)">
<path d="M98.4621 115C101.421 115 103.821 112.666 103.821 109.787C103.821 106.909 101.421 104.575 98.4621 104.575C95.5027 104.575 93.1036 106.909 93.1036 109.787C93.1036 112.666 95.5027 115 98.4621 115Z" fill="url(#paint47_linear_0_1122)"/>
</g>
<mask id="mask24_0_1122" style="mask-type:alpha" maskUnits="userSpaceOnUse" x="124" y="104" width="11" height="11">
<path d="M129.497 115C132.456 115 134.855 112.666 134.855 109.787C134.855 106.909 132.456 104.575 129.497 104.575C126.537 104.575 124.138 106.909 124.138 109.787C124.138 112.666 126.537 115 129.497 115Z" fill="url(#paint48_linear_0_1122)"/>
</mask>
<g mask="url(#mask24_0_1122)">
<path d="M129.497 115C132.456 115 134.855 112.666 134.855 109.787C134.855 106.909 132.456 104.575 129.497 104.575C126.537 104.575 124.138 106.909 124.138 109.787C124.138 112.666 126.537 115 129.497 115Z" fill="url(#paint49_linear_0_1122)"/>
</g>
</g>
<defs>
<linearGradient id="paint0_linear_0_1122" x1="56.3644" y1="131.134" x2="-13.7532" y2="-51.8429" gradientUnits="userSpaceOnUse">
<stop/>
<stop offset="1" stop-color="white"/>
</linearGradient>
<linearGradient id="paint1_linear_0_1122" x1="56.3644" y1="131.134" x2="-13.7532" y2="-51.8429" gradientUnits="userSpaceOnUse">
<stop stop-color="#97C3F9"/>
<stop offset="1" stop-color="#93C1F9"/>
</linearGradient>
<linearGradient id="paint2_linear_0_1122" x1="83.221" y1="120.843" x2="13.1034" y2="-62.1341" gradientUnits="userSpaceOnUse">
<stop/>
<stop offset="1" stop-color="white"/>
</linearGradient>
<linearGradient id="paint3_linear_0_1122" x1="83.221" y1="120.843" x2="13.1034" y2="-62.1341" gradientUnits="userSpaceOnUse">
<stop stop-color="#97C3F9"/>
<stop offset="1" stop-color="#93C1F9"/>
</linearGradient>
<linearGradient id="paint4_linear_0_1122" x1="110.077" y1="110.551" x2="39.9598" y2="-72.4254" gradientUnits="userSpaceOnUse">
<stop/>
<stop offset="1" stop-color="white"/>
</linearGradient>
<linearGradient id="paint5_linear_0_1122" x1="110.077" y1="110.551" x2="39.9598" y2="-72.4254" gradientUnits="userSpaceOnUse">
<stop stop-color="#97C3F9"/>
<stop offset="1" stop-color="#93C1F9"/>
</linearGradient>
<linearGradient id="paint6_linear_0_1122" x1="136.934" y1="100.259" x2="66.8161" y2="-82.7173" gradientUnits="userSpaceOnUse">
<stop/>
<stop offset="1" stop-color="white"/>
</linearGradient>
<linearGradient id="paint7_linear_0_1122" x1="136.934" y1="100.259" x2="66.8161" y2="-82.7173" gradientUnits="userSpaceOnUse">
<stop stop-color="#97C3F9"/>
<stop offset="1" stop-color="#93C1F9"/>
</linearGradient>
<linearGradient id="paint8_linear_0_1122" x1="163.79" y1="89.9679" x2="93.6724" y2="-93.0088" gradientUnits="userSpaceOnUse">
<stop/>
<stop offset="1" stop-color="white"/>
</linearGradient>
<linearGradient id="paint9_linear_0_1122" x1="163.79" y1="89.9679" x2="93.6724" y2="-93.0088" gradientUnits="userSpaceOnUse">
<stop stop-color="#97C3F9"/>
<stop offset="1" stop-color="#93C1F9"/>
</linearGradient>
<linearGradient id="paint10_linear_0_1122" x1="47.1998" y1="134.645" x2="-22.9167" y2="-48.33" gradientUnits="userSpaceOnUse">
<stop/>
<stop offset="1" stop-color="white"/>
</linearGradient>
<linearGradient id="paint11_linear_0_1122" x1="47.1998" y1="134.645" x2="-22.9167" y2="-48.33" gradientUnits="userSpaceOnUse">
<stop stop-color="#97C3F9"/>
<stop offset="1" stop-color="#93C1F9"/>
</linearGradient>
<linearGradient id="paint12_linear_0_1122" x1="74.0561" y1="124.354" x2="3.93972" y2="-58.6219" gradientUnits="userSpaceOnUse">
<stop/>
<stop offset="1" stop-color="white"/>
</linearGradient>
<linearGradient id="paint13_linear_0_1122" x1="74.0561" y1="124.354" x2="3.93972" y2="-58.6219" gradientUnits="userSpaceOnUse">
<stop stop-color="#97C3F9"/>
<stop offset="1" stop-color="#93C1F9"/>
</linearGradient>
<linearGradient id="paint14_linear_0_1122" x1="100.912" y1="114.062" x2="30.796" y2="-68.9132" gradientUnits="userSpaceOnUse">
<stop/>
<stop offset="1" stop-color="white"/>
</linearGradient>
<linearGradient id="paint15_linear_0_1122" x1="100.912" y1="114.062" x2="30.796" y2="-68.9132" gradientUnits="userSpaceOnUse">
<stop stop-color="#97C3F9"/>
<stop offset="1" stop-color="#93C1F9"/>
</linearGradient>
<linearGradient id="paint16_linear_0_1122" x1="127.769" y1="103.771" x2="57.6524" y2="-79.2047" gradientUnits="userSpaceOnUse">
<stop/>
<stop offset="1" stop-color="white"/>
</linearGradient>
<linearGradient id="paint17_linear_0_1122" x1="127.769" y1="103.771" x2="57.6524" y2="-79.2047" gradientUnits="userSpaceOnUse">
<stop stop-color="#97C3F9"/>
<stop offset="1" stop-color="#93C1F9"/>
</linearGradient>
<linearGradient id="paint18_linear_0_1122" x1="154.625" y1="93.4793" x2="84.5089" y2="-89.496" gradientUnits="userSpaceOnUse">
<stop/>
<stop offset="1" stop-color="white"/>
</linearGradient>
<linearGradient id="paint19_linear_0_1122" x1="154.625" y1="93.4793" x2="84.5089" y2="-89.496" gradientUnits="userSpaceOnUse">
<stop stop-color="#97C3F9"/>
<stop offset="1" stop-color="#93C1F9"/>
</linearGradient>
<linearGradient id="paint20_linear_0_1122" x1="38.0347" y1="138.158" x2="-32.0829" y2="-44.8186" gradientUnits="userSpaceOnUse">
<stop/>
<stop offset="1" stop-color="white"/>
</linearGradient>
<linearGradient id="paint21_linear_0_1122" x1="38.0347" y1="138.158" x2="-32.0829" y2="-44.8186" gradientUnits="userSpaceOnUse">
<stop stop-color="#97C3F9"/>
<stop offset="1" stop-color="#93C1F9"/>
</linearGradient>
<linearGradient id="paint22_linear_0_1122" x1="64.8912" y1="127.867" x2="-5.22639" y2="-55.1102" gradientUnits="userSpaceOnUse">
<stop/>
<stop offset="1" stop-color="white"/>
</linearGradient>
<linearGradient id="paint23_linear_0_1122" x1="64.8912" y1="127.867" x2="-5.22639" y2="-55.1102" gradientUnits="userSpaceOnUse">
<stop stop-color="#97C3F9"/>
<stop offset="1" stop-color="#93C1F9"/>
</linearGradient>
<linearGradient id="paint24_linear_0_1122" x1="91.7475" y1="117.575" x2="21.63" y2="-65.4016" gradientUnits="userSpaceOnUse">
<stop/>
<stop offset="1" stop-color="white"/>
</linearGradient>
<linearGradient id="paint25_linear_0_1122" x1="91.7475" y1="117.575" x2="21.63" y2="-65.4016" gradientUnits="userSpaceOnUse">
<stop stop-color="#97C3F9"/>
<stop offset="1" stop-color="#93C1F9"/>
</linearGradient>
<linearGradient id="paint26_linear_0_1122" x1="118.604" y1="107.283" x2="48.4863" y2="-75.6932" gradientUnits="userSpaceOnUse">
<stop/>
<stop offset="1" stop-color="white"/>
</linearGradient>
<linearGradient id="paint27_linear_0_1122" x1="118.604" y1="107.283" x2="48.4863" y2="-75.6932" gradientUnits="userSpaceOnUse">
<stop stop-color="#97C3F9"/>
<stop offset="1" stop-color="#93C1F9"/>
</linearGradient>
<linearGradient id="paint28_linear_0_1122" x1="145.46" y1="96.992" x2="75.3427" y2="-85.9847" gradientUnits="userSpaceOnUse">
<stop/>
<stop offset="1" stop-color="white"/>
</linearGradient>
<linearGradient id="paint29_linear_0_1122" x1="145.46" y1="96.992" x2="75.3427" y2="-85.9847" gradientUnits="userSpaceOnUse">
<stop stop-color="#97C3F9"/>
<stop offset="1" stop-color="#93C1F9"/>
</linearGradient>
<linearGradient id="paint30_linear_0_1122" x1="28.8699" y1="141.67" x2="-41.2478" y2="-41.3067" gradientUnits="userSpaceOnUse">
<stop/>
<stop offset="1" stop-color="white"/>
</linearGradient>
<linearGradient id="paint31_linear_0_1122" x1="28.8699" y1="141.67" x2="-41.2478" y2="-41.3067" gradientUnits="userSpaceOnUse">
<stop stop-color="#97C3F9"/>
<stop offset="1" stop-color="#93C1F9"/>
</linearGradient>
<linearGradient id="paint32_linear_0_1122" x1="55.7263" y1="131.379" x2="-14.3913" y2="-51.5982" gradientUnits="userSpaceOnUse">
<stop/>
<stop offset="1" stop-color="white"/>
</linearGradient>
<linearGradient id="paint33_linear_0_1122" x1="55.7263" y1="131.379" x2="-14.3913" y2="-51.5982" gradientUnits="userSpaceOnUse">
<stop stop-color="#97C3F9"/>
<stop offset="1" stop-color="#93C1F9"/>
</linearGradient>
<linearGradient id="paint34_linear_0_1122" x1="82.5826" y1="121.087" x2="12.4651" y2="-61.8896" gradientUnits="userSpaceOnUse">
<stop/>
<stop offset="1" stop-color="white"/>
</linearGradient>
<linearGradient id="paint35_linear_0_1122" x1="82.5826" y1="121.087" x2="12.4651" y2="-61.8896" gradientUnits="userSpaceOnUse">
<stop stop-color="#97C3F9"/>
<stop offset="1" stop-color="#93C1F9"/>
</linearGradient>
<linearGradient id="paint36_linear_0_1122" x1="109.439" y1="110.796" x2="39.3214" y2="-72.1812" gradientUnits="userSpaceOnUse">
<stop/>
<stop offset="1" stop-color="white"/>
</linearGradient>
<linearGradient id="paint37_linear_0_1122" x1="109.439" y1="110.796" x2="39.3214" y2="-72.1812" gradientUnits="userSpaceOnUse">
<stop stop-color="#97C3F9"/>
<stop offset="1" stop-color="#93C1F9"/>
</linearGradient>
<linearGradient id="paint38_linear_0_1122" x1="136.295" y1="100.504" x2="66.1778" y2="-82.4728" gradientUnits="userSpaceOnUse">
<stop/>
<stop offset="1" stop-color="white"/>
</linearGradient>
<linearGradient id="paint39_linear_0_1122" x1="136.295" y1="100.504" x2="66.1778" y2="-82.4728" gradientUnits="userSpaceOnUse">
<stop stop-color="#97C3F9"/>
<stop offset="1" stop-color="#93C1F9"/>
</linearGradient>
<linearGradient id="paint40_linear_0_1122" x1="19.705" y1="145.182" x2="-50.4126" y2="-37.7948" gradientUnits="userSpaceOnUse">
<stop/>
<stop offset="1" stop-color="white"/>
</linearGradient>
<linearGradient id="paint41_linear_0_1122" x1="19.705" y1="145.182" x2="-50.4126" y2="-37.7948" gradientUnits="userSpaceOnUse">
<stop stop-color="#97C3F9"/>
<stop offset="1" stop-color="#93C1F9"/>
</linearGradient>
<linearGradient id="paint42_linear_0_1122" x1="46.5614" y1="134.89" x2="-23.5562" y2="-48.0863" gradientUnits="userSpaceOnUse">
<stop/>
<stop offset="1" stop-color="white"/>
</linearGradient>
<linearGradient id="paint43_linear_0_1122" x1="46.5614" y1="134.89" x2="-23.5562" y2="-48.0863" gradientUnits="userSpaceOnUse">
<stop stop-color="#97C3F9"/>
<stop offset="1" stop-color="#93C1F9"/>
</linearGradient>
<linearGradient id="paint44_linear_0_1122" x1="73.4177" y1="124.599" x2="3.30023" y2="-58.3777" gradientUnits="userSpaceOnUse">
<stop/>
<stop offset="1" stop-color="white"/>
</linearGradient>
<linearGradient id="paint45_linear_0_1122" x1="73.4177" y1="124.599" x2="3.30023" y2="-58.3777" gradientUnits="userSpaceOnUse">
<stop stop-color="#97C3F9"/>
<stop offset="1" stop-color="#93C1F9"/>
</linearGradient>
<linearGradient id="paint46_linear_0_1122" x1="100.274" y1="114.307" x2="30.1566" y2="-68.6693" gradientUnits="userSpaceOnUse">
<stop/>
<stop offset="1" stop-color="white"/>
</linearGradient>
<linearGradient id="paint47_linear_0_1122" x1="100.274" y1="114.307" x2="30.1566" y2="-68.6693" gradientUnits="userSpaceOnUse">
<stop stop-color="#97C3F9"/>
<stop offset="1" stop-color="#93C1F9"/>
</linearGradient>
<linearGradient id="paint48_linear_0_1122" x1="127.131" y1="104.016" x2="57.013" y2="-78.9608" gradientUnits="userSpaceOnUse">
<stop/>
<stop offset="1" stop-color="white"/>
</linearGradient>
<linearGradient id="paint49_linear_0_1122" x1="127.131" y1="104.016" x2="57.013" y2="-78.9608" gradientUnits="userSpaceOnUse">
<stop stop-color="#97C3F9"/>
<stop offset="1" stop-color="#93C1F9"/>
</linearGradient>
</defs>
</svg>
