<svg width="168" height="41" viewBox="0 0 168 41" fill="none" xmlns="http://www.w3.org/2000/svg">
<path d="M63.856 29V14.624H58.264V12.08H72.544V14.624H66.952V29H63.856ZM72.5924 29V19.976C72.5924 19.464 72.5764 18.944 72.5444 18.416C72.5284 17.888 72.4884 17.376 72.4244 16.88H75.3284L75.6644 20.192H75.1844C75.3444 19.392 75.6084 18.728 75.9764 18.2C76.3604 17.672 76.8244 17.28 77.3684 17.024C77.9124 16.768 78.5044 16.64 79.1444 16.64C79.4324 16.64 79.6644 16.656 79.8404 16.688C80.0164 16.704 80.1924 16.744 80.3684 16.808L80.3444 19.448C80.0404 19.32 79.7764 19.24 79.5524 19.208C79.3444 19.176 79.0804 19.16 78.7604 19.16C78.0724 19.16 77.4884 19.304 77.0084 19.592C76.5444 19.88 76.1924 20.28 75.9524 20.792C75.7284 21.304 75.6164 21.888 75.6164 22.544V29H72.5924ZM86.6011 29.24C85.5451 29.24 84.6171 28.992 83.8171 28.496C83.0171 27.984 82.3931 27.256 81.9451 26.312C81.4971 25.368 81.2731 24.24 81.2731 22.928C81.2731 21.616 81.4971 20.496 81.9451 19.568C82.3931 18.624 83.0171 17.904 83.8171 17.408C84.6171 16.896 85.5451 16.64 86.6011 16.64C87.6251 16.64 88.5211 16.896 89.2891 17.408C90.0731 17.904 90.5931 18.576 90.8491 19.424H90.5851L90.8491 16.88H93.7291C93.6811 17.376 93.6331 17.88 93.5851 18.392C93.5531 18.904 93.5371 19.408 93.5371 19.904V29H90.5611L90.5371 26.504H90.8251C90.5691 27.336 90.0491 28 89.2651 28.496C88.4811 28.992 87.5931 29.24 86.6011 29.24ZM87.4411 26.936C88.3851 26.936 89.1451 26.608 89.7211 25.952C90.2971 25.28 90.5851 24.272 90.5851 22.928C90.5851 21.584 90.2971 20.584 89.7211 19.928C89.1451 19.272 88.3851 18.944 87.4411 18.944C86.4971 18.944 85.7371 19.272 85.1611 19.928C84.5851 20.584 84.2971 21.584 84.2971 22.928C84.2971 24.272 84.5771 25.28 85.1371 25.952C85.7131 26.608 86.4811 26.936 87.4411 26.936ZM97.6199 29V19.136H95.2919V16.88H98.4599L97.6199 17.648V15.8C97.6199 14.296 98.0039 13.16 98.7719 12.392C99.5559 11.624 100.7 11.24 102.204 11.24C102.556 11.24 102.924 11.264 103.308 11.312C103.708 11.36 104.052 11.448 104.34 11.576V13.928C104.132 13.848 103.884 13.784 103.596 13.736C103.308 13.688 103.028 13.664 102.756 13.664C102.34 13.664 101.964 13.744 101.628 13.904C101.308 14.064 101.052 14.312 100.86 14.648C100.684 14.968 100.596 15.4 100.596 15.944V17.408L100.164 16.88H103.788V19.136H100.62V29H97.6199ZM110.203 29.24C109.147 29.24 108.219 28.992 107.419 28.496C106.619 27.984 105.995 27.256 105.547 26.312C105.099 25.368 104.875 24.24 104.875 22.928C104.875 21.616 105.099 20.496 105.547 19.568C105.995 18.624 106.619 17.904 107.419 17.408C108.219 16.896 109.147 16.64 110.203 16.64C111.227 16.64 112.123 16.896 112.891 17.408C113.675 17.904 114.195 18.576 114.451 19.424H114.187L114.451 16.88H117.331C117.283 17.376 117.235 17.88 117.187 18.392C117.155 18.904 117.139 19.408 117.139 19.904V29H114.163L114.139 26.504H114.427C114.171 27.336 113.651 28 112.867 28.496C112.083 28.992 111.195 29.24 110.203 29.24ZM111.043 26.936C111.987 26.936 112.747 26.608 113.323 25.952C113.899 25.28 114.187 24.272 114.187 22.928C114.187 21.584 113.899 20.584 113.323 19.928C112.747 19.272 111.987 18.944 111.043 18.944C110.099 18.944 109.339 19.272 108.763 19.928C108.187 20.584 107.899 21.584 107.899 22.928C107.899 24.272 108.179 25.28 108.739 25.952C109.315 26.608 110.083 26.936 111.043 26.936ZM120.405 29V11.336H123.405V29H120.405ZM132.279 34.376C131.159 34.376 130.143 34.256 129.231 34.016C128.335 33.776 127.535 33.408 126.831 32.912L127.479 30.752C127.943 31.056 128.423 31.304 128.919 31.496C129.415 31.688 129.927 31.832 130.455 31.928C130.983 32.024 131.519 32.072 132.063 32.072C133.183 32.072 134.015 31.792 134.559 31.232C135.119 30.688 135.399 29.904 135.399 28.88V25.976H135.639C135.383 26.808 134.863 27.472 134.079 27.968C133.311 28.464 132.423 28.712 131.415 28.712C130.327 28.712 129.375 28.472 128.559 27.992C127.759 27.496 127.135 26.792 126.687 25.88C126.239 24.968 126.015 23.896 126.015 22.664C126.015 21.432 126.239 20.368 126.687 19.472C127.135 18.56 127.759 17.864 128.559 17.384C129.375 16.888 130.327 16.64 131.415 16.64C132.439 16.64 133.327 16.888 134.079 17.384C134.847 17.864 135.359 18.52 135.615 19.352L135.399 19.208L135.639 16.88H138.543C138.479 17.376 138.431 17.88 138.399 18.392C138.367 18.904 138.351 19.408 138.351 19.904V28.52C138.351 30.424 137.831 31.872 136.791 32.864C135.767 33.872 134.263 34.376 132.279 34.376ZM132.231 26.408C133.191 26.408 133.951 26.088 134.511 25.448C135.087 24.792 135.375 23.864 135.375 22.664C135.375 21.464 135.087 20.544 134.511 19.904C133.951 19.264 133.191 18.944 132.231 18.944C131.255 18.944 130.479 19.264 129.903 19.904C129.327 20.544 129.039 21.464 129.039 22.664C129.039 23.864 129.327 24.792 129.903 25.448C130.479 26.088 131.255 26.408 132.231 26.408ZM146.273 29.24C145.217 29.24 144.289 28.992 143.489 28.496C142.689 27.984 142.065 27.256 141.617 26.312C141.169 25.368 140.945 24.24 140.945 22.928C140.945 21.616 141.169 20.496 141.617 19.568C142.065 18.624 142.689 17.904 143.489 17.408C144.289 16.896 145.217 16.64 146.273 16.64C147.297 16.64 148.193 16.896 148.961 17.408C149.745 17.904 150.265 18.576 150.521 19.424H150.257L150.521 16.88H153.401C153.353 17.376 153.305 17.88 153.257 18.392C153.225 18.904 153.209 19.408 153.209 19.904V29H150.233L150.209 26.504H150.497C150.241 27.336 149.721 28 148.937 28.496C148.153 28.992 147.265 29.24 146.273 29.24ZM147.113 26.936C148.057 26.936 148.817 26.608 149.393 25.952C149.969 25.28 150.257 24.272 150.257 22.928C150.257 21.584 149.969 20.584 149.393 19.928C148.817 19.272 148.057 18.944 147.113 18.944C146.169 18.944 145.409 19.272 144.833 19.928C144.257 20.584 143.969 21.584 143.969 22.928C143.969 24.272 144.249 25.28 144.809 25.952C145.385 26.608 146.153 26.936 147.113 26.936ZM156.452 29V19.976C156.452 19.464 156.436 18.944 156.404 18.416C156.388 17.888 156.348 17.376 156.284 16.88H159.188L159.524 20.192H159.044C159.204 19.392 159.468 18.728 159.836 18.2C160.22 17.672 160.684 17.28 161.228 17.024C161.772 16.768 162.364 16.64 163.004 16.64C163.292 16.64 163.524 16.656 163.7 16.688C163.876 16.704 164.052 16.744 164.228 16.808L164.204 19.448C163.9 19.32 163.636 19.24 163.412 19.208C163.204 19.176 162.94 19.16 162.62 19.16C161.932 19.16 161.348 19.304 160.868 19.592C160.404 19.88 160.052 20.28 159.812 20.792C159.588 21.304 159.476 21.888 159.476 22.544V29H156.452Z" fill="#233348"/>
<ellipse cx="22.0067" cy="20.5" rx="21.0101" ry="20.5" fill="#458FF6"/>
<path d="M20.6641 31V15.426H14.6061V12.67H30.0761V15.426H24.0181V31H20.6641Z" fill="white"/>
</svg>